<svg width="466" height="418" viewBox="0 0 466 418" fill="none" xmlns="http://www.w3.org/2000/svg">
<path d="M120.259 29V0.199966H153.859V29H144.259V9.79999H129.859V29H120.259ZM264.259 153.8V57.8H249.859V81.8H225.859V105.8H192.259V48.2H216.259V24.2H240.259V9.79999H177.859V24.2H197.059V33.8H168.259V0.199966H249.859V33.8H225.859V57.8H201.859V96.2H216.259V72.2H240.259V48.2H273.859V144.2H288.259V125H297.859V153.8H264.259ZM288.259 81.8V33.8H264.259V0.199966H321.859V24.2H336.259V5H345.859V33.8H312.259V9.79999H273.859V24.2H297.859V72.2H312.259V48.2H345.859V72.2H360.259V48.2H384.259V33.8H365.059V24.2H393.859V57.8H369.859V81.8H336.259V57.8H321.859V81.8H288.259ZM72.2594 77V29H81.8594V77H72.2594ZM96.2594 77V48.2H129.859V77H120.259V57.8H105.859V77H96.2594ZM149.059 105.8V96.2H168.259V81.8H144.259V48.2H173.059V57.8H153.859V72.2H177.859V105.8H149.059ZM389.059 81.8V72.2H408.259V53H417.859V81.8H389.059ZM144.259 153.8V129.8H120.259V105.8H57.8594V129.8H24.2594V72.2H48.2594V53H57.8594V81.8H33.8594V120.2H48.2594V96.2H129.859V120.2H153.859V144.2H168.259V120.2H240.259V101H249.859V129.8H177.859V153.8H144.259ZM336.259 153.8V129.8H312.259V96.2H393.859V129.8H365.059V120.2H384.259V105.8H321.859V120.2H345.859V144.2H365.059V153.8H336.259ZM48.2594 177.8V153.8H0.259377V101H9.85938V144.2H57.8594V168.2H120.259V153.8H101.059V144.2H129.859V177.8H48.2594ZM432.259 125V101H441.859V125H432.259ZM72.2594 149V120.2H101.059V129.8H81.8594V149H72.2594ZM408.259 153.8V125H417.859V144.2H461.059V153.8H408.259ZM312.259 177.8V149H321.859V168.2H384.259V149H393.859V177.8H312.259ZM120.259 345.8V216.2H168.259V177.8H153.859V201.8H105.859V225.8H48.2594V201.8H9.85938V264.2H48.2594V249.8H29.0594V240.2H57.8594V273.8H0.259377V192.2H57.8594V216.2H96.2594V192.2H144.259V168.2H177.859V225.8H129.859V336.2H149.059V345.8H120.259ZM384.259 249.8V192.2H408.259V168.2H461.059V177.8H417.859V201.8H393.859V240.2H456.259V225.8H413.059V216.2H465.859V249.8H384.259ZM269.059 177.8V168.2H293.059V177.8H269.059ZM5.05938 177.8V168.2H29.0594V177.8H5.05938ZM336.259 393.8V360.2H408.259V321.8H360.259V297.8H336.259V273.8H288.259V216.2H321.859V240.2H336.259V201.8H273.859V288.2H297.859V312.2H312.259V293H321.859V321.8H288.259V297.8H264.259V192.2H345.859V249.8H312.259V225.8H297.859V264.2H345.859V288.2H369.859V312.2H417.859V369.8H345.859V384.2H365.059V393.8H336.259ZM437.059 201.8V192.2H461.059V201.8H437.059ZM360.259 221V197H369.859V221H360.259ZM48.2594 365V345.8H24.2594V321.8H0.259377V288.2H72.2594V240.2H105.859V321.8H81.8594V336.2H101.059V345.8H72.2594V312.2H96.2594V249.8H81.8594V297.8H9.85938V312.2H33.8594V336.2H57.8594V365H48.2594ZM149.059 249.8V240.2H173.059V249.8H149.059ZM360.259 269V245H369.859V269H360.259ZM173.059 297.8V288.2H192.259V273.8H149.059V264.2H201.859V297.8H173.059ZM384.259 293V264.2H417.859V293H408.259V273.8H393.859V293H384.259ZM432.259 317V264.2H461.059V273.8H441.859V317H432.259ZM288.259 365V345.8H264.259V321.8H216.259V288.2H245.059V297.8H225.859V312.2H273.859V336.2H297.859V365H288.259ZM192.259 417.8V393.8H72.2594V360.2H168.259V321.8H144.259V293H153.859V312.2H177.859V369.8H81.8594V384.2H201.859V408.2H341.059V417.8H192.259ZM336.259 345.8V317H345.859V336.2H389.059V345.8H336.259ZM240.259 393.8V345.8H201.859V360.2H221.059V369.8H192.259V336.2H249.859V384.2H264.259V365H273.859V393.8H240.259ZM312.259 365V341H321.859V365H312.259ZM293.059 393.8V384.2H317.059V393.8H293.059ZM149.059 417.8V408.2H173.059V417.8H149.059Z" fill="black"/>
</svg>
